# xmcd
#
# Track frame offsets: 
#        150
#        75939
#        85740
#        90708
#        102237
#        104640
#        116466
#        130020
#        139011
#        139686
#        149190
#        150162
#        163203
#        164283
#        173004
#        211425
#        222792
#        224790
#        236913
#        237723
#        248037
#        256866
#        258594
#        269745
#        279546
#        287079
#        296826
#        297636
#        305493
#        306438
#        317994
#        318318
#        328470
#        329199
#        339756
#
# Disc length: 4543 seconds
#
# Revision: 0
# Processed by: cddbd v1.5.2PL0 Copyright (c) Steve Scherf et al.
# Submitted via: ExactAudioCopy v0.95b3
#
DISCID=3a11bd23
DTITLE=The Beatles  - The Days In Their Life - Vol.04  FLAC
DYEAR=1900
DGENRE=
TTITLE0=Narrative
TTITLE1=Can't Buy Me Love
TTITLE2=Narrative
TTITLE3=You Can't Do That
TTITLE4=Narrative
TTITLE5=A World Without Love (Peter And Gordon)
TTITLE6=Narrative
TTITLE7=Long Tall Sally
TTITLE8=Narrative
TTITLE9=I Call Your Name
TTITLE10=Narrative
TTITLE11=Slow Down
TTITLE12=Narrative
TTITLE13=Matchbox
TTITLE14=Narrative
TTITLE15=A Hard Day's Night
TTITLE16=Narrative
TTITLE17=I Should Have Known Better
TTITLE18=Narrative
TTITLE19=If I Fell
TTITLE20=Narrative I'm Happy Just To Dance With You
TTITLE21=Narrative
TTITLE22=And I Love Her
TTITLE23=NarrativeTell Me Why
TTITLE24=Narrative
TTITLE25=Any Time At All
TTITLE26=Narrative
TTITLE27=I'll Cry Instead
TTITLE28=Narrative
TTITLE29=Things We Said Today
TTITLE30=Narrative
TTITLE31=When I Get Home
TTITLE32=Narrative
TTITLE33=I'll Be Back
TTITLE34=Narrative
EXTD=
EXTT0=
EXTT1=
EXTT2=
EXTT3=
EXTT4=
EXTT5=
EXTT6=
EXTT7=
EXTT8=
EXTT9=
EXTT10=
EXTT11=
EXTT12=
EXTT13=
EXTT14=
EXTT15=
EXTT16=
EXTT17=
EXTT18=
EXTT19=
EXTT20=
EXTT21=
EXTT22=
EXTT23=
EXTT24=
EXTT25=
EXTT26=
EXTT27=
EXTT28=
EXTT29=
EXTT30=
EXTT31=
EXTT32=
EXTT33=
EXTT34=
PLAYORDER=
